<svg xmlns="http://www.w3.org/2000/svg" width="112" height="125" viewBox="0 0 112 125">
  <g fill="none" fill-rule="evenodd">
    <circle cx="37.5" cy="98.5" r="16.5" fill="#A4C9FB"/>
    <path fill="#75A540" fill-rule="nonzero" d="M111.106658,16.8037415 L105.788419,12.1002197 L111.106658,7.39765161 C111.933687,6.66522974 112.216642,5.52368164 111.82829,4.48799121 C111.438039,3.45134741 110.474281,2.78186792 109.371893,2.78186792 L87.3640121,2.78186792 L87.3640121,1.8320083 C87.3640121,0.820159912 86.5474284,0 85.539992,0 C84.5325557,0 83.715972,0.820159912 83.715972,1.8320083 L83.715972,26.5398025 L68.735459,34.7099304 C68.6528511,34.0480806 68.4553518,33.3976746 68.1429611,32.7854155 L66.0321871,28.6464692 C64.5832256,25.8045195 61.1023003,24.6782302 58.2746417,26.1325835 L56.642424,26.9718169 C55.2713228,27.6775361 54.2562903,28.8753511 53.7834315,30.3478242 C53.3105724,31.8193435 53.4368582,33.3881377 54.1394998,34.7642898 L56.2502738,38.9041899 C56.7430726,39.8702622 57.4713514,40.6351089 58.3278146,41.171074 C57.2073858,42.6864624 56.6756569,44.5499419 56.1287357,46.4859009 L55.7356362,47.8839873 C55.4612259,48.857689 56.0252385,49.870491 56.9946943,50.1451492 C57.1599101,50.192833 57.327025,50.2147676 57.4912911,50.2147676 C58.2869854,50.2147676 59.0181128,49.6883394 59.2459966,48.8805771 L59.6390961,47.4853516 C60.4385886,44.6538926 60.9294883,43.1375503 62.4923917,42.2849656 L65.2944133,40.7562256 L65.6400368,40.5788423 C65.7549284,40.5197144 65.8622237,40.452957 65.9714181,40.3871536 L85.9416373,29.4952393 C85.8153515,32.002449 84.4717866,34.371376 82.2594144,35.7208252 L69.2728849,43.6458589 C69.2576927,43.6544419 69.2425004,43.6630249 69.2282576,43.6725615 L65.1861683,46.1387634 C64.3259068,46.664238 64.0514967,47.791481 64.5746801,48.6564636 C65.0674789,49.4718552 66.0929561,49.7617722 66.9294796,49.352646 L63.862543,58.6643218 L61.6207359,59.5874785 L55.5248436,62.0965957 L57.2814482,55.8595657 C57.5549088,54.8858643 56.9918459,53.873062 56.0223899,53.5974502 C55.0519848,53.3208848 54.0445484,53.8883208 53.7701381,54.8620225 L50.994703,64.7201538 C50.9586215,64.8469924 50.9348836,64.986229 50.9291864,65.1187896 L50.2028068,78.5198213 C50.1809679,79.0309907 50.2892128,79.9970627 50.0537328,80.4958345 L41.9866454,97.5418091 L36.1243339,97.5418091 C32.6899348,97.5418091 29.896459,100.347519 29.896459,103.796005 L29.896459,109.084129 C29.1102596,108.722687 28.2376546,108.520508 27.3175735,108.520508 L12.4301132,108.520508 C8.99666359,108.520508 6.20318758,111.325264 6.20318758,114.774704 L6.20318758,121.335983 L1.82402006,121.335983 C0.816583709,121.335983 0,122.156143 0,123.167992 C0,124.17984 0.816583709,125 1.82402006,125 L109.369994,125 C110.37743,125 111.194014,124.17984 111.194014,123.167992 C111.194014,122.156143 110.37743,121.335983 109.369994,121.335983 L104.626212,121.335983 L104.626212,74.1147996 C104.626212,70.6663132 101.832736,67.8606033 98.3992865,67.8606033 L87.3640121,67.8606033 L87.3640121,35.900116 C89.3864812,33.1468582 90.1356492,29.5381545 89.196578,26.1087417 C89.0494029,25.5699158 88.664849,25.1274109 88.1521104,24.9090195 C87.9004888,24.8012544 87.630826,24.7535706 87.3640121,24.764061 L87.3640121,21.4195251 L109.370943,21.4195251 C110.474281,21.4195251 111.438039,20.7500459 111.827341,19.7143555 C112.216642,18.678665 111.933687,17.5361633 111.106658,16.8037415 L111.106658,16.8037415 Z M57.2558112,31.4731597 C57.4295727,30.9324265 57.8017829,30.4918289 58.3050262,30.2333833 L59.9372442,29.3941499 C60.2448874,29.2358398 60.5734198,29.1604995 60.8981543,29.1604995 C61.6672621,29.1604995 62.4107332,29.5829773 62.7848426,30.3163528 L64.896566,34.4562529 C65.3893646,35.4232788 65.0703273,36.5953445 64.1939242,37.1875762 L63.5995271,37.5108718 L62.3452166,38.1565093 C61.3073958,38.6905669 60.0293472,38.2766724 59.4976183,37.2333525 L57.3858948,33.0944062 C57.1285762,32.5889587 57.0820497,32.0129395 57.2558112,31.4731597 L57.2558112,31.4731597 Z M53.5906797,98.1054307 C52.9706458,97.8212356 52.2964894,97.635269 51.5881506,97.5694656 L53.5906797,94.8982239 L53.5906797,98.1054307 Z M62.2512145,83.3435059 C63.1285672,82.2877883 63.3706938,81.0546875 63.566294,80.060959 C63.6156691,79.8244478 64.51581,74.886322 64.51581,74.886322 C64.51581,74.886322 65.3675259,75.419426 65.4567803,75.457573 C65.5184988,75.4852295 65.5621766,75.5462646 65.5688233,75.6177903 L66.5610674,85.7486724 L60.4480839,85.7486724 L62.2512145,83.3435059 Z M73.0377156,73.231697 L71.4976008,85.7400894 L70.2261989,85.7400894 L69.1997723,75.2592087 C69.0687389,73.9164353 68.2502563,72.7443696 67.0510176,72.1616746 L65.2165528,70.9934233 L66.4385799,64.1908645 C66.4385799,64.1908645 71.5868552,70.333481 71.7064943,70.4898833 C72.7718511,71.8812942 73.1364652,72.43824 73.0377156,73.231697 Z M53.3352599,82.0980073 C53.7036721,80.9841157 53.874585,79.8501968 53.8460994,78.6972046 L54.5088616,66.4749146 L62.9453107,63.0025864 L61.4118424,71.5341567 C61.4070949,71.5570449 61.4023474,71.5808867 61.3994988,71.6037749 L60.1309455,78.658104 C59.9657296,79.3886184 59.8214031,80.4967881 59.3675346,81.0985566 L47.0418683,97.5418091 L46.0258861,97.5418091 L53.3352599,82.0980073 Z M9.85122794,114.77375 C9.85122794,113.3461 11.0077382,112.184524 12.4301132,112.184524 L27.3175735,112.184524 C28.7399485,112.184524 29.8974085,113.3461 29.8974085,114.77375 L29.8974085,121.335983 L9.85122794,121.335983 L9.85122794,114.77375 Z M33.5444991,114.77375 L33.5444991,103.796005 C33.5444991,102.367401 34.7019591,101.205826 36.1243339,101.205826 L51.0117944,101.205826 C52.4341694,101.205826 53.5906797,102.367401 53.5906797,103.796005 L53.5906797,121.335983 L33.5454486,121.335983 L33.5454486,114.77375 L33.5444991,114.77375 Z M100.978172,74.1147996 L100.978172,121.335983 L80.9329407,121.335983 L80.9329407,110.351562 C80.9329407,109.339714 80.116357,108.519554 79.1089206,108.519554 C78.1005346,108.519554 77.2839509,109.339714 77.2839509,110.351562 L77.2839509,121.335983 L57.2387198,121.335983 L57.2387198,92.001915 C57.2387198,90.5742646 58.3952303,89.4126892 59.8176053,89.4126892 L74.7050656,89.4126892 C76.1274406,89.4126892 77.2839509,90.5742646 77.2839509,92.001915 L77.2839509,101.185799 C77.2839509,102.197647 78.1005346,103.017807 79.1079709,103.017807 C80.116357,103.017807 80.9319912,102.197647 80.9319912,101.185799 L80.9319912,74.1147996 C80.9319912,72.6861953 82.0894512,71.5246201 83.511826,71.5246201 L85.5210017,71.5246201 C85.5266987,71.5246201 85.5333453,71.5255737 85.539992,71.5255737 C85.5456892,71.5255737 85.5523357,71.5246201 85.5580329,71.5246201 L98.398337,71.5246201 C99.8207118,71.5246201 100.978172,72.6871489 100.978172,74.1147996 L100.978172,74.1147996 Z M83.511826,67.8606033 C80.0783763,67.8606033 77.2849003,70.6663132 77.2849003,74.1147996 L77.2849003,86.3122939 C76.6316333,86.0128403 75.9194965,85.8230591 75.1703285,85.7677461 L76.65822,73.6827852 C76.9506707,71.3272095 75.7542809,69.7660447 74.5977703,68.2554246 C74.4752828,68.0952073 67.3852472,59.6399307 67.3852472,59.6399307 L71.7349797,46.4315415 L83.715972,39.1206741 L83.715972,67.8606033 L83.511826,67.8606033 Z M87.3640121,17.7545547 L87.3640121,6.44683838 L106.661025,6.44683838 L102.504993,10.1222993 C101.939082,10.6229783 101.614347,11.3439561 101.614347,12.1011733 C101.614347,12.8583909 101.939082,13.5793687 102.504993,14.0800476 L106.661025,17.7555083 L87.3640121,17.7555083 L87.3640121,17.7545547 Z"/>
  </g>
</svg>
