<svg xmlns="http://www.w3.org/2000/svg" width="98" height="88" viewBox="0 0 98 88">
  <g fill="none" fill-rule="evenodd">
    <circle cx="81.5" cy="34.5" r="16.5" fill="#D2D2D2"/>
    <g fill="#EC6376" fill-rule="nonzero">
      <path d="M85.943391 33.5641617L85.9270509 33.4979287C85.6626206 32.4411569 84.5823817 31.7967647 83.5142983 32.0581486 82.4462149 32.3197297 81.7944051 33.3881317 82.0588354 34.4451006L82.0707916 34.4930013C82.2917812 35.3950322 83.1069919 36 84.0054971 36 84.1609272 36 84.3189477 35.9818648 84.4765697 35.9440173 85.5458488 35.6873643 86.2028396 34.6219191 85.943391 33.5641617zM35.1008752 57.3796582C30.4781448 54.4542082 27.718267 49.3315504 27.718267 43.6768507 27.718267 41.9289918 27.985106 40.2115577 28.5111601 38.5725256 28.8388049 37.5519336 28.3153541 36.4457235 27.342275 36.1022757 26.3691958 35.7590229 25.3146703 36.3078373 24.9870255 37.3284292 24.3321077 39.3692231 24 41.5051916 24 43.6770457 24 50.7104124 27.4319031 57.0814573 33.1800062 60.7193518 33.4806882 60.9095061 33.8116801 61 34.1387671 61 34.7687676 61 35.3831481 60.6637683 35.7323633 60.0568349 36.2628801 59.1347331 35.9802353 57.9362738 35.1008752 57.3796582zM56.3991455 28.9283143C52.7700004 25.7503222 48.0247983 24 43.037806 24 40.7022857 24 38.4170349 24.3807831 36.2457025 25.1313275 35.2563701 25.4735345 34.7525293 26.4966002 35.1202796 27.4169148 35.4880299 28.3372295 36.5880314 28.8058309 37.5777461 28.4636238 39.321693 27.8606284 41.1585331 27.5548642 43.0379971 27.5548642 47.0471253 27.5548642 50.8616746 28.961735 53.778829 31.5164659 54.1479173 31.8398293 54.6186912 32 55.0885094 32 55.5969375 32 56.1042189 31.8124528 56.4803793 31.4409137 57.2038382 30.7262788 57.1673307 29.6011733 56.3991455 28.9283143z"/>
      <path d="M96.0861289,44.5775201 L81.6874023,44.5775201 L81.6874023,40.6026137 C81.6874023,38.670501 80.1215078,37.0984857 78.196918,37.0984857 L75.6276719,37.0984857 C74.3119453,30.9591519 71.281793,25.3674582 66.8344687,20.9025581 C59.2878945,13.3264856 48.5054063,9.94783444 37.9908867,11.8630376 C36.9509766,12.0525018 36.2607656,13.0524734 36.4494922,14.0966406 C36.6382187,15.1408077 37.6344883,15.8329479 38.6743984,15.6440601 C47.953582,13.9534855 57.4691523,16.9349535 64.127793,23.6200059 C67.8561953,27.3629819 70.4566406,32.0019739 71.7025039,37.0986778 L61.2544023,37.0986778 C59.3298125,37.0986778 57.763918,38.6706932 57.763918,40.6028059 L57.763918,44.5777123 L43.3651914,44.5777123 C42.3082461,44.5777123 41.4513203,45.4381798 41.4513203,46.4990643 L41.4513203,58.2856244 C41.4513203,60.0891859 42.1509102,61.7307611 43.2903516,62.9547848 L43.2903516,72.8149968 C35.8239766,72.6870219 28.8512383,69.721887 23.5284219,64.3780726 C16.6961758,57.5191205 13.7691914,47.741727 15.6987578,38.2231655 C15.9094961,37.1834179 15.2407227,36.1688426 14.2050234,35.9572806 C13.1689414,35.7455264 12.1586992,36.4171061 11.9479609,37.4568537 C9.76171875,48.2422893 13.0787891,59.3219132 20.8215547,67.0951361 C26.7792656,73.0761346 34.8935508,76.5095499 43.2901602,76.6546264 L43.2901602,83.6169576 C43.2901602,83.7971985 43.3022187,83.9743649 43.3234648,84.1488411 C21.4991328,83.8763661 3.82755078,65.9719935 3.82755078,43.9989432 C3.82755078,37.1280775 5.56839062,30.4118961 8.87493359,24.460105 L15.3324062,30.9735635 C15.6916758,31.3359667 16.1799531,31.5396504 16.6889023,31.5396504 L28.7264414,31.5396504 L40.5272109,43.386547 C40.9010273,43.7618246 41.3908359,43.9493673 41.8804531,43.9493673 C42.3702617,43.9493673 42.8602617,43.7618246 43.2336953,43.386547 C43.9811367,42.636184 43.9811367,41.4196543 43.2336953,40.6690992 L31.4327344,28.8222026 L31.4327344,16.737611 C31.4327344,16.2272488 31.230418,15.7378315 30.8703828,15.3773498 L24.394918,8.89252235 C30.3158789,5.58419967 36.9948086,3.84251198 43.8272461,3.84251198 C59.3533555,3.84251198 73.6062305,12.9838743 80.1387344,27.1314358 C80.4625937,27.8327994 81.1539531,28.2451628 81.8763203,28.2451628 C82.1458203,28.2451628 82.4195312,28.1877087 82.6800352,28.0664592 C83.6389805,27.6200845 84.0560547,26.4779186 83.6116094,25.515225 C80.1435195,18.0042929 74.6497773,11.639562 67.7237422,7.10932932 C60.6135742,2.45823152 52.3501836,0 43.8274375,0 C35.9755703,0 28.3066875,2.10005568 21.5864141,6.07995808 L16.0783164,0.563204612 C15.5303203,0.0146037361 14.7076563,-0.149111832 13.9931367,0.148727523 C13.2784258,0.446374723 12.8129258,1.14658544 12.8129258,1.92327361 L12.8129258,12.8120883 L1.93301172,12.8120883 C1.15953906,12.8120883 0.4624375,13.2792157 0.165757812,13.9959517 C-0.130921875,14.7128798 0.0310078125,15.5383752 0.576515625,16.0887055 L6.07619141,21.6360115 C2.09876953,28.3915845 0,36.1025493 0,43.998751 C0,55.7512998 4.55891406,66.8005634 12.8368516,75.1108578 C21.1147891,83.4213444 32.1210313,87.9978863 43.8278203,87.9978863 L91.7948008,88 C94.2023086,88 96.1609687,86.033876 96.1609687,83.6167655 L96.1609687,62.9555534 C97.3476875,61.6834911 98,60.0334611 98,58.2819735 L98,46.49868 L98,46.49868 C98,45.4377955 97.1430742,44.5775201 96.0861289,44.5775201 Z M16.6404766,6.55400304 L27.605375,17.5344753 L27.605375,24.9716201 L16.6404766,13.9390739 L16.6404766,6.55400304 Z M13.9326523,16.6549846 L24.8986992,27.6961777 L17.4843867,27.6961777 L6.53805469,16.6549846 L13.9326523,16.6549846 L13.9326523,16.6549846 Z M61.5914687,40.9411898 L77.8592773,40.9411898 L77.8592773,44.5775201 L61.5914687,44.5775201 L61.5914687,40.9411898 Z M92.3330352,74.9333071 L79.7733398,74.9333071 C78.7163945,74.9333071 77.8594687,75.7937746 77.8594687,76.8546592 C77.8594687,77.9155438 78.7163945,78.7760113 79.7733398,78.7760113 L92.3330352,78.7760113 L92.3330352,83.6165733 C92.3330352,83.914797 92.0916719,84.1572959 91.7948008,84.1572959 L50.0023945,84.1572959 C49.9886133,84.1571037 49.9754062,84.1551822 49.961625,84.1551822 L47.6356562,84.1551822 C47.3483555,84.1442294 47.1177109,83.9078794 47.1177109,83.6167655 L47.1177109,65.0304368 C47.492293,65.0946164 47.8766367,65.1299728 48.2690195,65.1299728 L64.0531445,65.1299728 C64.3925078,67.9703995 66.8061406,70.179791 69.7254687,70.179791 C72.6491992,70.179791 75.0658945,67.9634819 75.3993242,65.1167142 L91.1773242,65.1267062 C91.1788555,65.1267062 91.1801953,65.1267062 91.1817266,65.1267062 C91.5716211,65.1267062 91.9561562,65.0921184 92.3330352,65.028131 L92.3330352,74.9333071 L92.3330352,74.9333071 Z M67.8387773,64.4428286 L67.8387773,61.0653303 L71.612543,61.0653303 L71.612543,64.4428286 C71.612543,65.48738 70.7659531,66.3370869 69.7256602,66.3370869 C68.6853672,66.3370869 67.8387773,65.48738 67.8387773,64.4428286 Z M94.1722578,58.2819735 C94.1722578,59.0844104 93.8610313,59.8384243 93.2956172,60.405472 C92.7307773,60.9721354 91.9802734,61.2841942 91.1817266,61.2841942 C91.1811523,61.2841942 91.1805781,61.2841942 91.1798125,61.2841942 L75.4400938,61.2742022 L75.4400938,59.5132991 C75.4400938,58.250268 74.4166445,57.2226262 73.1583398,57.2226262 L66.2924063,57.2226262 C65.034293,57.2226262 64.0106523,58.2500759 64.0106523,59.5132991 L64.0106523,61.2872687 L48.2690195,61.2872687 C46.6200547,61.2872687 45.2786797,59.9404583 45.2786797,58.2852401 L45.2786797,48.4202243 L94.1722578,48.4202243 L94.1722578,58.2819735 L94.1722578,58.2819735 Z"/>
      <path d="M71.4139414,75.5860586 C71.0419042,75.2140214 70.5258526,75 70,75 C69.4719472,75 68.9580958,75.2138214 68.5840584,75.5860586 C68.2120212,75.9580958 68,76.4741474 68,77 C68,77.5260526 68.2120212,78.0419042 68.5840584,78.4137414 C68.9580958,78.7857786 69.4721472,79 70,79 C70.5260526,79 71.040104,78.7859786 71.4139414,78.4137414 C71.7859786,78.0419042 72,77.5258526 72,77 C72,76.4741474 71.7859786,75.9580958 71.4139414,75.5860586 Z"/>
    </g>
  </g>
</svg>
