<svg xmlns="http://www.w3.org/2000/svg" width="108" height="76" viewBox="0 0 108 76">
  <g fill="none" fill-rule="evenodd">
    <circle cx="27.5" cy="57.5" r="16.5" fill="#FFD47F"/>
    <path fill="#FF673D" fill-rule="nonzero" d="M105.916036,17.0634165 L83.117621,9.32971894 C82.2900643,9.05022597 81.3920504,9.49487388 81.1121198,10.3257303 C80.8324002,11.1565866 81.2766608,12.0579515 82.1044284,12.3387149 L104.685143,19.998728 L94.0560085,25.2000499 C93.6147012,24.9012888 93.1193907,24.6719775 92.5823122,24.5311724 L60.7003922,16.1677686 C59.6869887,10.9346862 53.2677818,8.73833722 49.3249164,12.4625811 C47.9602812,13.7516366 47.1776569,15.5693996 47.1776569,17.4498368 L47.1776569,17.4845616 C47.1888373,19.6986965 49.014609,21.499944 51.2479361,21.499944 L56.752464,21.499944 C58.1738447,21.499944 59.5954364,20.7554764 60.3327064,19.3539885 L90.0646246,27.1535364 C80.6701797,31.7507723 59.5806699,42.0710503 56.8923238,43.3867847 C54.9946181,44.3152518 52.8802668,44.2542716 51.1076544,43.3867847 L3.31462386,19.998728 L51.8866925,3.52177026 C53.2492182,3.05933644 54.750549,3.05933644 56.1130747,3.52177026 L75.0768419,9.9549786 C75.9048204,10.2355303 76.8024125,9.79024713 77.082343,8.95896728 C77.3620627,8.12811089 76.9178021,7.22674605 76.0900345,6.94598266 L57.1262673,0.512774324 C55.1100077,-0.170924775 52.8897595,-0.170924775 50.8734999,0.512774324 L2.08373093,17.0634165 C-0.508421997,17.9433959 -0.742365487,21.5469497 1.72131892,22.752369 L26.7606555,35.005595 C25.3831524,41.5789733 23.2799814,48.6558624 20.9941278,54.9372552 C20.0583539,57.5060498 20.8646045,60.3636537 22.9998399,62.048234 C30.2259303,67.748832 38.7639183,72.1525402 47.5147549,74.9832535 C51.6270132,76.3131743 56.2124321,76.3644146 60.4841685,74.9832535 C69.2377474,72.1512698 77.7765793,67.7458677 84.9988726,62.048234 C87.1419131,60.3570898 87.9371944,57.4982155 87.0045847,54.9372552 C84.7670386,48.7951854 82.6351784,41.6721376 81.2382679,35.0062302 L93.0164471,29.2425346 L93.0164471,53.1434185 C91.0033518,53.2981984 89.4115235,54.9880722 89.4115235,57.0476389 L89.4115235,61.675365 C89.4115235,62.3628754 89.708963,62.9805125 90.1793813,63.4107623 L89.5916748,72.3295524 C89.476918,74.0719371 90.8571635,75.5528263 92.5975006,75.5528263 L96.6000648,75.5528263 C98.3395581,75.5528263 99.7204364,74.0725723 99.6056796,72.3295524 L99.018184,63.4107623 C99.4886024,62.9805125 99.7860418,62.3630871 99.7860418,61.675365 L99.7860418,57.0474272 C99.7860418,54.9878604 98.1940026,53.2979866 96.1809073,53.1432068 L96.1809073,29.2080214 C96.1809073,28.7199674 96.1043324,28.2471585 95.9676369,27.7982758 L106.278448,22.7525807 C108.738968,21.5484318 108.512408,17.9446664 105.916036,17.0634165 L105.916036,17.0634165 Z M56.752464,18.3238875 L51.2479361,18.3238875 C50.7591651,18.3238875 50.3442265,17.9321739 50.3419061,17.4765156 L50.3419061,17.4498368 C50.3419061,16.4267231 50.7507271,15.4770822 51.4934818,14.7753854 C53.7719522,12.6230778 57.5057662,14.1723582 57.6536421,17.2679546 C57.6888708,18.0092462 57.2133896,18.3238875 56.752464,18.3238875 L56.752464,18.3238875 Z M82.2514605,50.8549639 C73.7033468,57.5699944 61.5724593,62.373674 57.3939628,63.1731933 C56.5356074,63.3375013 55.972582,64.1692046 56.1362792,65.0305511 C56.2999763,65.8923211 57.1309082,66.4574474 57.9867321,66.2929277 C62.357404,65.4563544 74.3323996,60.7852222 83.3220315,54.0327144 C83.543107,54.6655965 83.7992002,55.3861379 84.0327218,56.0274896 C84.4968117,57.3021469 84.0991711,58.7178212 83.0435775,59.5510067 C74.5233093,66.2721775 65.5450686,70.0089138 59.5135878,71.9596477 C55.9109846,73.1252605 51.9980741,73.0964642 48.4853356,71.9596477 C42.4538548,70.0087021 33.4756142,66.2721775 24.9553459,59.5510067 C23.8999633,58.7182447 23.5016898,57.3027821 23.9664125,56.0272778 C23.9756943,56.0018694 23.9847652,55.9760375 23.994047,55.950629 C24.2239824,55.318382 24.47881,54.600805 24.676892,54.0322909 C33.4540973,60.6232434 45.3963956,65.409984 50.0107147,66.2935629 C50.8701247,66.4574474 51.6976814,65.8927446 51.8613785,65.0313981 C52.0250757,64.1698398 51.4620503,63.3381365 50.6039059,63.1738285 C46.6591419,62.4189857 34.4866973,57.7169399 25.7474629,50.8547522 C27.032359,46.9107252 28.5212438,41.8421625 29.6915941,36.4399021 L49.7208694,46.2412125 C52.3876987,47.54636 55.5080702,47.5973886 58.2791087,46.2412125 L78.3071184,36.4403256 C79.4774687,41.8423742 80.9663534,46.910937 82.2514605,50.8549639 L82.2514605,50.8549639 Z M92.7595101,72.3765581 L93.3098785,64.0258586 L95.887265,64.0258586 L96.4374224,72.3765581 L92.7595101,72.3765581 Z M96.6215817,57.0472155 L96.6215817,60.8495903 L92.5757727,60.8495903 L92.5757727,57.0472155 C92.5757727,56.6442798 92.9147693,56.3038065 93.316418,56.3038065 L95.8807255,56.3038065 C96.2821632,56.3040182 96.6215817,56.6442798 96.6215817,57.0472155 L96.6215817,57.0472155 Z"/>
  </g>
</svg>
