<svg xmlns="http://www.w3.org/2000/svg" width="207" height="77" viewBox="0 0 207 77">
  <g fill="none">
    <polygon fill="#FFF" points="0 19.384 32.544 0 65 19.384 65 57.902 32.65 77 0 58.1"/>
    <g fill="#5154CD" transform="translate(15 22)">
      <polygon points="19.894 21.226 7.624 21.226 7.624 29.192 21.348 29.192 21.348 35.394 .071 35.394 .071 1.889 20.621 1.889 20.621 8.091 7.624 8.091 7.624 15.077 19.894 15.077"/>
      <path d="M49.6985816,0.106930693 L49.6985816,28.1584158 C49.6985816,30.9207921 49.787234,33.8079208 49.893617,35.429703 L43.1914894,35.429703 L42.8723404,31.8653465 L42.7659574,31.8653465 C41.2411348,34.5920792 38.3156028,35.9821782 35.177305,35.9821782 C29.4680851,35.9821782 24.8402419,31.0455446 24.8402419,23.4891089 C24.8049645,15.3089109 29.9113475,10.550495 35.6737589,10.550495 C38.6702128,10.550495 40.9574468,11.619802 42.0390071,13.2950495 L42.1453901,13.2950495 L42.1453901,0.124752475 L49.6985816,0.106930693 L49.6985816,0.106930693 Z M42.1631206,21.4039604 C42.1631206,20.9762376 42.1453901,20.4594059 42.0567376,20.0316832 C41.6312057,18 39.9822695,16.3247525 37.6950355,16.3247525 C34.2375887,16.3247525 32.5,19.4079208 32.5,23.239604 C32.5,27.3386139 34.5035461,29.9227723 37.641844,29.9227723 C39.787234,29.9227723 41.5425532,28.4257426 42.0035461,26.2871287 C42.1276596,25.770297 42.1631206,25.1821782 42.1631206,24.5762376 L42.1631206,21.4039604 L42.1631206,21.4039604 Z"/>
    </g>
    <g fill="#000" transform="translate(68 22)">
      <path d="M7.87129987 11.1827586L9.83912484 21.2670498C10.3221364 23.7881226 10.8230373 26.5252874 11.2344916 29.3344828L11.3418275 29.3344828C11.8069498 26.543295 12.5404118 23.7340996 13.1307593 21.3210728L15.7068211 11.1827586 21.7355212 11.1827586 24.1863578 20.9789272C24.8482625 23.7881226 25.492278 26.5252874 25.9752896 29.3344828L26.0826255 29.3344828C26.4225225 26.543295 26.9234234 23.7701149 27.4958816 20.9429119L29.5710425 11.1827586 36.9951094 11.1827586 29.5173745 35.7812261 22.397426 35.7812261 20.1075933 27.1555556C19.4814672 24.7425287 19.0342342 22.5455939 18.515444 19.4662835L18.4081081 19.4662835C17.9608752 22.5455939 17.4599743 24.8505747 16.8338481 27.1015326L14.3830116 35.7632184 7.24517375 35.7632184.125225225 11.164751 7.87129987 11.164751 7.87129987 11.1827586zM48.3548263 4.35785441C48.3727156 6.48275862 46.7984556 8.17547893 44.2760618 8.17547893 41.8610039 8.17547893 40.3046332 6.48275862 40.3225225 4.35785441 40.3225225 2.1789272 41.9146718.522222222 44.347619.522222222 46.7984556.522222222 48.3190476 2.16091954 48.3548263 4.35785441zM40.519305 35.7812261L40.519305 11.1827586 48.1222651 11.1827586 48.1222651 35.7812261 40.519305 35.7812261 40.519305 35.7812261zM54.1867439 29.1183908C55.5642214 29.9827586 58.4980695 30.9551724 60.6984556 30.9551724 62.9882883 30.9551724 63.9722008 30.1808429 63.9722008 28.9203065 63.9722008 27.6417625 63.2029601 27.0295019 60.3943372 26.0750958 55.3137709 24.4003831 53.3996139 21.6091954 53.4175032 18.7279693 53.4175032 14.1 57.2994852 10.6425287 63.363964 10.6425287 66.2262548 10.6425287 68.7486486 11.3268199 70.2513514 12.0831418L68.9275418 17.359387C67.8184041 16.7831418 65.7074646 15.9727969 63.6323037 15.9727969 61.7718147 15.9727969 60.7163449 16.7111111 60.7163449 17.9536398 60.7163449 19.1241379 61.6823681 19.7544061 64.6877735 20.7988506 69.3211068 22.3835249 71.2710425 24.7785441 71.3068211 28.362069 71.3068211 32.954023 67.7468468 36.3394636 60.7521236 36.3394636 57.567825 36.3394636 54.7055341 35.6191571 52.845045 34.610728L54.1867439 29.1183908zM81.7541828 25.9490421C81.9867439 29.1183908 85.0994852 30.6310345 88.6415701 30.6310345 91.2176319 30.6310345 93.3106821 30.2888889 95.3679537 29.58659L96.3876448 34.7547893C93.865251 35.7992337 90.8061776 36.3034483 87.5324324 36.3034483 79.2496782 36.3034483 74.4911197 31.4413793 74.4911197 23.7881226 74.4911197 17.5394636 78.3731017 10.6245211 86.8168597 10.6245211 94.7418275 10.6245211 97.7293436 16.8191571 97.7293436 22.9057471 97.7293436 24.2383142 97.5862291 25.3727969 97.4610039 25.9310345L81.7541828 25.9490421 81.7541828 25.9490421zM90.6630631 20.7088123C90.6809524 18.8720307 89.8580438 15.7206897 86.4054054 15.7206897 83.1853282 15.7206897 81.8972973 18.6739464 81.6826255 20.7088123L90.6630631 20.7088123z"/>
      <polygon points="102.255 .108 109.858 .108 109.858 35.799 102.255 35.799"/>
      <path d="M121.68314,11.1827586 L125.332561,23.283908 C125.744015,24.7245211 126.227027,26.5613027 126.549035,27.8578544 L126.710039,27.8578544 C127.049936,26.5252874 127.443501,24.7065134 127.801287,23.283908 L130.806692,11.2007663 L138.910553,11.2007663 L133.23964,27.3896552 C129.733333,37.1498084 127.389833,41.0574713 124.634878,43.5245211 C122.023037,45.8295019 119.214414,46.6758621 117.318147,46.891954 L115.690219,40.4452107 C116.656242,40.2651341 117.836937,39.8149425 118.999743,39.148659 C120.162548,38.5363985 121.414801,37.3118774 122.130373,36.0873563 C122.380824,35.7091954 122.559717,35.3130268 122.559717,34.9888889 C122.559717,34.7007663 122.48816,34.340613 122.21982,33.7283525 L113.257272,11.2187739 L121.68314,11.1827586 L121.68314,11.1827586 Z"/>
    </g>
  </g>
</svg>
