<svg xmlns="http://www.w3.org/2000/svg" width="73" height="114" viewBox="0 0 73 114">
  <g fill="none" fill-rule="evenodd">
    <ellipse cx="54" cy="16.5" fill="#BCE0A6" rx="17" ry="16.5"/>
    <g fill="#4E54C8" fill-rule="nonzero" transform="translate(0 11)">
      <path d="M71.7007244,29.9426815 C67.762826,29.0641899 63.7570512,28.5248627 59.7272727,28.3306069 L59.7272727,8.30645161 C59.7221297,3.72105991 56.0111392,0.00514988013 51.4318182,0 L8.29545455,0 C3.71613352,0.00514988013 0.0051430621,3.72105991 0,8.30645161 L0,94.6935484 C0.0051430621,99.2789401 3.71613352,102.99485 8.29545455,103 L51.4318182,103 C56.0111392,102.99485 59.7221297,99.2789401 59.7272727,94.6935484 L59.7272727,74.8508891 C63.5148424,75.0424384 67.2794925,75.5539259 70.9810938,76.3798992 C71.4723501,76.4891827 71.9865909,76.3692943 72.3791172,76.0539687 C72.7716436,75.7386431 73,75.2619652 73,74.7580645 L73,31.5645161 C73,30.7858048 72.4598956,30.1115645 71.7007244,29.9426815 Z M38.7928636,3.32258065 L37.1337727,6.64516129 L22.5935,6.64516129 L20.9344091,3.32258065 L38.7928636,3.32258065 Z M56.4090909,94.6935484 C56.4060051,97.4447834 54.1794108,99.6743294 51.4318182,99.6774194 L8.29545455,99.6774194 C5.54786193,99.6743294 3.32126766,97.4447834 3.31818182,94.6935484 L3.31818182,8.30645161 C3.32126766,5.55521659 5.54786193,3.32567057 8.29545455,3.32258065 L17.2246818,3.32258065 L20.0843324,9.04946371 C20.365372,9.61223091 20.9398092,9.96772055 21.5681818,9.96774194 L38.1590909,9.96774194 C38.7874635,9.96772055 39.3619007,9.61223091 39.6429403,9.04946371 L42.5025909,3.32258065 L51.4318182,3.32258065 C54.1794108,3.32567057 56.4060051,5.55521659 56.4090909,8.30645161 L56.4090909,28.2494113 C51.3884905,28.2528383 46.3826869,28.7945298 41.4772727,29.8652238 C31.5174459,27.6861056 21.2023776,27.7125414 11.253821,29.9426815 C10.4946499,30.1115645 9.95450609,30.7858048 9.95454545,31.5645161 L9.95454545,74.7580645 C9.95451998,75.2619652 10.1829019,75.7386431 10.5754282,76.0539687 C10.9679545,76.3692943 11.4821954,76.4891827 11.9734517,76.3798992 C21.5692814,74.2281153 31.5216277,74.2281153 41.1174574,76.3798992 C41.140892,76.3850907 41.1645341,76.387375 41.1879688,76.3915282 C41.2223949,76.3975504 41.2566136,76.4046109 41.2916619,76.4085565 C41.3192443,76.4116714 41.3466193,76.4120867 41.3746165,76.413748 C41.4077983,76.4158246 41.4409801,76.4191472 41.4743693,76.4191472 L41.4772727,76.4191472 C41.5303636,76.4191472 41.5834545,76.4158246 41.6361307,76.4108407 C41.6525142,76.4091794 41.6688977,76.4066875 41.6854886,76.4046109 C41.7269659,76.3993501 41.7676828,76.3924281 41.8076392,76.3838448 C41.8175938,76.3817681 41.8273409,76.3811452 41.8370881,76.3790685 C46.6209485,75.3097362 51.507483,74.7688691 56.4090909,74.7661633 L56.4090909,94.6935484 Z M26.5454545,71.4429597 C22.0908465,71.4448104 17.6465388,71.8714733 13.2727273,72.7171694 L13.2727273,32.9101613 C22.0315691,31.126559 31.05934,31.126559 39.8181818,32.9101613 L39.8181818,72.7171694 C35.4443703,71.8714733 31.0000626,71.4448104 26.5454545,71.4429597 L26.5454545,71.4429597 Z M69.6818182,72.7171694 C60.9146687,71.0182235 51.9035131,71.0182235 43.1363636,72.7171694 L43.1363636,32.9101613 C51.8952055,31.126559 60.9229763,31.126559 69.6818182,32.9101613 L69.6818182,72.7171694 Z"/>
      <path d="M36.2857143 37L15.7142857 37C14.7675119 37 14 37.7959382 14 38.7777778L14 51.2222222C14 52.2040618 14.7675119 53 15.7142857 53L36.2857143 53C37.2324881 53 38 52.2040618 38 51.2222222L38 38.7777778C38 37.7959382 37.2324881 37 36.2857143 37zM34.5714286 49.4444444L17.4285714 49.4444444 17.4285714 40.5555556 34.5714286 40.5555556 34.5714286 49.4444444zM36.2857143 58L15.7142857 58C14.7675119 58 14 58.6715729 14 59.5 14 60.3284271 14.7675119 61 15.7142857 61L36.2857143 61C37.2324881 61 38 60.3284271 38 59.5 38 58.6715729 37.2324881 58 36.2857143 58zM18.3333333 63L16.6666667 63C15.7461921 63 15 63.6715729 15 64.5 15 65.3284271 15.7461921 66 16.6666667 66L18.3333333 66C19.2538079 66 20 65.3284271 20 64.5 20 63.6715729 19.2538079 63 18.3333333 63zM67.2857143 50L46.7142857 50C45.7675119 50 45 50.6715729 45 51.5 45 52.3284271 45.7675119 53 46.7142857 53L67.2857143 53C68.2324881 53 69 52.3284271 69 51.5 69 50.6715729 68.2324881 50 67.2857143 50zM51.4 56L46.6 56C45.7163444 56 45 56.6715729 45 57.5 45 58.3284271 45.7163444 59 46.6 59L51.4 59C52.2836556 59 53 58.3284271 53 57.5 53 56.6715729 52.2836556 56 51.4 56zM45 38.5714286L45 46.4285714C45 47.2964475 45.7675119 48 46.7142857 48L67.2857143 48C68.2324881 48 69 47.2964475 69 46.4285714L69 38.5714286C69 37.7035525 68.2324881 37 67.2857143 37L46.7142857 37C45.7675119 37 45 37.7035525 45 38.5714286zM48.4285714 40.1428571L65.5714286 40.1428571 65.5714286 44.8571429 48.4285714 44.8571429 48.4285714 40.1428571zM20.2222222 93L7.77777778 93C6.79593822 93 6 93.6715729 6 94.5 6 95.3284271 6.79593822 96 7.77777778 96L20.2222222 96C21.2040618 96 22 95.3284271 22 94.5 22 93.6715729 21.2040618 93 20.2222222 93zM26.3333333 93L24.6666667 93C23.7461921 93 23 93.6715729 23 94.5 23 95.3284271 23.7461921 96 24.6666667 96L26.3333333 96C27.2538079 96 28 95.3284271 28 94.5 28 93.6715729 27.2538079 93 26.3333333 93z"/>
    </g>
  </g>
</svg>
