<svg xmlns="http://www.w3.org/2000/svg" xmlns:xlink="http://www.w3.org/1999/xlink" width="515" height="482" viewBox="0 0 515 482">
  <defs>
    <ellipse id="monkey-a" cx="211.5" cy="211" rx="211.5" ry="211"/>
    <linearGradient id="monkey-c" x1="50%" x2="50%" y1="32.415%" y2="86.887%">
      <stop offset="0%" stop-color="#9D6E34"/>
      <stop offset="100%" stop-color="#8E5D26"/>
    </linearGradient>
    <linearGradient id="monkey-d" x1="50%" x2="50%" y1="32.415%" y2="86.887%">
      <stop offset="0%" stop-color="#9D6E34"/>
      <stop offset="100%" stop-color="#8E5D26"/>
    </linearGradient>
    <linearGradient id="monkey-e" x1="50%" x2="50%" y1="32.415%" y2="86.887%">
      <stop offset="0%" stop-color="#9D6E34"/>
      <stop offset="100%" stop-color="#8E5D26"/>
    </linearGradient>
    <linearGradient id="monkey-f" x1="50%" x2="50%" y1="32.415%" y2="86.887%">
      <stop offset="0%" stop-color="#9D6E34"/>
      <stop offset="100%" stop-color="#8E5D26"/>
    </linearGradient>
    <linearGradient id="monkey-g" x1="50%" x2="50%" y1="0%" y2="100%">
      <stop offset="0%" stop-color="#9A6826"/>
      <stop offset="100%" stop-color="#5F3D0F"/>
    </linearGradient>
    <linearGradient id="monkey-h" x1="50%" x2="50%" y1="0%" y2="100%">
      <stop offset="0%" stop-color="#EDB17B"/>
      <stop offset="100%" stop-color="#FBD48E"/>
    </linearGradient>
    <linearGradient id="monkey-i" x1="50%" x2="50%" y1="50%" y2="100%">
      <stop offset="0%" stop-color="#97D06B"/>
      <stop offset="100%" stop-color="#64853D"/>
    </linearGradient>
    <linearGradient id="monkey-k" x1="59.054%" x2="59.054%" y1="148.12%" y2="-55.205%">
      <stop offset="0%" stop-color="#FFA776"/>
      <stop offset="25.638%" stop-color="#B14A64"/>
      <stop offset="52.615%" stop-color="#D7315C"/>
      <stop offset="100%" stop-color="#FFA776"/>
    </linearGradient>
    <path id="monkey-j" d="M248.480759,159.517159 C246.500282,160.478464 224.940798,160.773274 220.351356,157.663606 C217.291728,155.590494 217.890825,150.269572 222.148646,141.700838 L226.353755,129.687209 C197.986106,141.199912 172.408612,146.956263 149.621273,146.956263 C115.440263,146.956263 46.015183,135.96936 29.9854176,93.8546369 C19.2989073,65.7781552 9.87215931,34.5878453 1.70517354,0.283707174 C12.6463483,6.45129518 22.9349892,9.88001213 32.5710963,10.569858 C42.2072033,11.2597039 52.5555373,9.30838154 63.6160981,4.7158909 C60.9852948,46.2302216 66.1655914,73.2227371 79.1569879,85.6934373 C107.299953,112.70843 129.716031,116.715494 160.824056,117.233539 C194.694564,117.797587 224.672233,109.100653 230.432062,111.872332 C237.798652,115.417199 240.626548,119.22906 238.915751,123.307916 L253.282157,141.700838 L273.263532,123.307916 L293.062631,101.702177 C306.594173,96.4704836 321.07094,93.8546369 336.492933,93.8546369 C359.625921,93.8546369 395.371739,100.664509 425.312714,126.932417 C445.273363,144.444356 455.829899,164.988837 456.982319,188.565862 C449.967858,191.947486 440.505231,192.534556 428.594439,190.327069 C416.683646,188.119583 406.130072,184.074397 396.933715,178.19151 C395.483892,158.456498 386.507061,143.845935 370.003224,134.359823 C345.247468,120.130655 315.513352,120.993945 299.766262,121.903373 C289.268201,122.509659 283.201431,126.661809 281.56595,134.359823 C289.588656,144.795023 292.097203,151.735547 289.091592,155.181395 C284.583174,160.350167 261.487742,160.350167 259.622677,159.517159 C258.379299,158.961821 256.265793,156.249604 253.282157,151.380509 C251.401543,156.164072 249.801077,158.876289 248.480759,159.517159 Z"/>
    <linearGradient id="monkey-l" x1="50%" x2="50%" y1="32.415%" y2="86.887%">
      <stop offset="0%" stop-color="#9D6E34"/>
      <stop offset="100%" stop-color="#8E5D26"/>
    </linearGradient>
  </defs>
  <g fill="none" fill-rule="evenodd" transform="translate(-9 -16)">
    <g transform="translate(0 76)">
      <mask id="monkey-b" fill="#fff">
        <use xlink:href="#monkey-a"/>
      </mask>
      <use fill="#D8D8D8" xlink:href="#monkey-a"/>
      <g mask="url(#monkey-b)">
        <g transform="translate(-51.525 -74.617)">
          <path fill="#FDD394" stroke="#58391D" d="M16.7969927,471.744597 C8.60044687,486.137197 3.65545156,496.773094 1.96200675,503.652286 C-0.578160453,513.971075 -2.20905357,531.407231 7.29396955,536.241075 C13.6293183,539.463637 20.3047208,537.050379 27.320177,529.0013 C32.4382391,536.732265 37.6217838,540.284667 42.8708111,539.658507 C48.1198384,539.032347 52.890542,534.292496 57.1829218,525.438952 C60.7478811,536.773016 66.2635184,539.368913 73.7298337,533.226644 C84.9293065,524.013239 90.3638833,502.269919 90.5794771,497.964805 C90.7232063,495.094729 87.012779,493.572271 79.4481953,493.397431 L73.7298337,515.096296 C77.6796922,504.492828 79.5858128,497.259873 79.4481953,493.397431 C79.3105778,489.534988 77.0168047,485.887885 72.5668759,482.456121 L16.7969927,471.744597 Z" transform="matrix(-1 0 0 1 90.583 0)"/>
          <path fill="url(#monkey-c)" stroke="#58391D" d="M21.1794279,394.613908 C69.481697,385.066846 107.417186,387.352935 134.985895,401.472176 C162.554605,415.591416 182.510687,440.870119 194.854143,477.308284 L211.084479,491.642436 C200.264255,487.34326 194.247503,485.193672 193.034222,485.193672 C191.820941,485.193672 191.052435,487.34326 190.728704,491.642436 C185.102334,482.086335 181.60281,477.308284 180.230133,477.308284 C178.857456,477.308284 177.846025,482.086335 177.195842,491.642436 C167.929684,482.951194 162.961593,478.173143 162.291572,477.308284 C161.62155,476.443425 154.31733,479.244178 140.378912,485.710545 C145.386975,478.744139 147.576746,474.926579 146.948226,474.257865 C146.319705,473.589151 139.578498,473.589151 126.724604,474.257865 C134.357625,470.121908 138.174135,467.096385 138.174135,465.181297 C138.174135,462.308665 128.798768,430.250302 93.6401836,419.761431 C70.2011272,412.76885 38.9877327,412.76885 0,419.761431 L21.1794279,394.613908 Z" transform="matrix(-1 0 0 1 211.084 0)"/>
          <path fill="url(#monkey-d)" stroke="#58391D" d="M378.835625,475.419802 C375.357832,486.166336 368.659437,492.813694 358.74044,495.361876 C343.861944,499.18415 325.196837,493.818126 311.006179,485.869903 C296.81552,477.92168 284.083269,455.755656 268.765047,448.836274 C253.446826,441.916893 235.934662,448.896472 225.259775,458.397782 C214.584888,467.899091 206.351655,486.026282 212.190573,499.088517 C218.029491,512.150752 231.69556,520.657291 248.303484,522.1645 C264.911408,523.671708 272.946502,513.767437 275.684347,506.969829 C278.422192,500.172221 279.603888,491.385299 276.604926,484.579927 C273.605963,477.774554 263.510923,468.067598 251.44899,470.869187 C239.387058,473.670775 232.920805,483.731959 236.153932,490.669878 C239.387058,497.607797 245.308601,497.607797 248.303484,495.361876 C251.298367,493.115956 258.698083,484.859198 263.060148,485.869903 C267.422214,486.880607 269.206305,494.299647 264.387163,499.088517 C259.568021,503.877387 248.29507,511.284555 236.153932,506.969829 C224.012793,502.655103 223.606957,488.410997 225.259775,482.564806 C226.912593,476.718615 239.422866,456.720099 261.632785,465.033053 C283.842704,473.346008 288.826606,489.477068 312.246963,505.740036 C325.167534,514.712009 350.121897,514.581391 364.9972,506.969829 C374.914068,501.895454 383.444799,491.378779 390.589391,475.419802 L378.835625,475.419802 Z" transform="matrix(-1 0 0 1 600.843 0)"/>
          <path fill="url(#monkey-e)" stroke="#58391D" d="M196.689383,412.452174 C195.859779,418.025774 194.513449,424.13203 192.650394,430.770943 C189.85581,440.729312 187.611014,448.998564 186.006843,450.518917 C184.402673,452.03927 143.840225,466.452764 141.917817,471.121345 C140.636211,474.233732 141.277014,485.54064 143.840225,505.04207 L157.621649,513.198428 L164.172185,509.296643 C162.161794,492.334549 162.161794,482.705056 164.172185,480.408165 C166.182576,478.111274 177.021642,474.088039 196.689383,468.338458 C202.149354,476.384929 208.609802,480.408165 216.070727,480.408165 C223.531652,480.408165 230.772522,476.384929 237.793338,468.338458 C257.142514,473.521421 267.590958,477.544657 269.13867,480.408165 C270.686383,483.271673 270.029344,492.901166 267.167553,509.296643 L271.460239,513.198428 L279.689618,509.296643 L289.406685,509.296643 C291.350358,491.396307 291.350358,479.694372 289.406685,474.190839 C286.491175,465.935539 252.476775,457.235756 247.17242,450.518917 C241.868065,443.802078 238.461446,432.769641 237.793338,429.519301 C236.148111,421.515281 236.148111,413.305426 237.793338,404.889738 L196.689383,401.273084 L196.689383,412.452174 Z" transform="matrix(-1 0 0 1 432.141 0)"/>
          <path fill="#FBD692" stroke="#58391D" d="M206.188567,405.418468 C207.50283,408.01894 207.50283,413.263855 206.188567,421.153213 C204.217173,432.987248 195.098376,443.802904 196.221136,452.040109 C197.343895,460.277314 203.551324,468.428291 214.349469,468.428291 C225.147614,468.428291 232.650354,462.305174 235.509415,452.040109 C238.368477,441.775043 228.259714,428.395512 226.611572,421.153213 C225.512811,416.325013 225.512811,411.080098 226.611572,405.418468 L206.188567,405.418468 Z" transform="matrix(-1 0 0 1 432.141 0)"/>
          <path fill="#9D6E34" d="M224.381139,427.803536 C226.73692,420.631433 227.86535,415.03619 227.76643,411.01781 C227.66751,406.999429 228.021073,405.143898 228.827118,405.451218 L240.170923,411.630733 L237.390249,414.926491 L224.381139,427.803536 Z" transform="matrix(-1 0 0 1 464.552 0)"/>
          <g transform="translate(255.623)">
            <path fill="#FCD591" stroke="#4C3818" stroke-width=".902" d="M155.797838,273.450461 C133.153417,275.780876 111.795213,249.710028 108.092952,215.219591 C104.390692,180.729154 119.746347,150.879955 142.390767,148.549539 C165.035188,146.219124 186.393392,172.289972 190.095653,206.780409 C193.797913,241.270846 178.442258,271.120045 155.797838,273.450461 Z" transform="matrix(-1 0 0 1 298.189 0)"/>
            <path stroke="#58391D" stroke-linecap="round" stroke-width=".902" d="M169.870334,193.944514 C164.241613,183.345707 156.833335,178.749872 147.645502,180.157008 C133.863752,182.267713 128.773384,193.895461 125.108077,210.146211 C122.664539,220.980045 124.959733,234.115329 131.993658,249.552063"/>
            <path stroke="#58391D" stroke-linecap="round" stroke-width=".902" d="M150.467713,247.064833 C158.685783,245.431419 164.315047,233.080314 160.155689,223.285261 C155.996332,213.490209 146.033971,208.515667 138.406602,210.021469 C130.779234,211.527271 121.89516,217.11557 124.689079,228.410609"/>
            <path fill="#FBD48E" stroke="#4C3818" d="M135.797642,228.87647 C153.125974,208.283119 165.698757,195.811765 173.515991,191.46241 C181.333225,187.113054 191.1756,187.113054 203.043115,191.46241 C210.600959,195.023221 215.728052,197.993245 218.424394,200.37248 C221.120735,202.751716 223.49597,206.401701 225.550098,211.322436 L221.26594,272.41702 L192.680192,279.398821 L135.797642,228.87647 Z" transform="matrix(-1 0 0 1 361.348 0)"/>
            <g fill-rule="nonzero" transform="scale(-1 1) rotate(27 -128.463 -510.663)">
              <polygon fill="#FFEA84" points="114.989 211.716 114.989 165.5 131.079 165.5 131.079 187.923 195.44 161.386 195.44 132.334 211.53 132.334 211.53 171.911"/>
              <g fill="#FFDC40" transform="translate(48.009 .752)">
                <polygon points="147.46 129.877 147.46 158.955 100.155 178.624 100.155 195.798 163.43 169.489 163.43 129.877"/>
                <polygon points=".153 203.028 .153 .25 186.862 77.881 225.182 77.881 225.182 125.398 186.862 125.398"/>
              </g>
              <path fill="#FFEA84" d="M39.9538793,205.866493 C31.3149616,205.866493 19.0834859,200.10453 9.87058724,172.654257 C3.59024802,153.940272 0.130964124,129.214354 0.130964124,103.030806 C0.130964124,76.8472581 3.59024802,52.1213402 9.87058724,33.4073547 C19.0834859,5.95708206 31.3149616,0.195119441 39.9538793,0.195119441 C48.5927971,0.195119441 60.8242727,5.95708206 70.0371714,33.4073547 C76.3175106,52.1213402 79.7767945,76.8477855 79.7767945,103.030806 C79.7767945,129.213827 76.3175106,153.940272 70.0371714,172.654257 C60.8242727,200.10453 48.5927971,205.866493 39.9538793,205.866493 Z"/>
              <path fill="#FFAB15" d="M235.085016,78.8934643 L148.884899,43.0067816 C153.298687,60.0997824 155.691341,80.8164532 155.691341,102.543232 C155.691341,124.27001 153.298687,144.986681 148.884899,162.079682 L235.085016,126.192999 L273.180665,126.192999 L273.180665,78.8934643 L235.085016,78.8934643 Z"/>
              <path fill="#FF9400" d="M41.0393479,16.6295987 C38.5000136,16.6295987 32.149586,21.3198938 26.2948935,39.0711411 C20.6284546,56.2516257 17.5076253,79.2496616 17.5076253,103.82945 C17.5076253,128.409238 20.6284546,151.407274 26.2948935,168.587759 C32.149586,186.339006 38.5000136,191.029301 41.0393479,191.029301 C43.5786823,191.029301 49.9291098,186.339006 55.7838024,168.587759 C61.4502412,151.407803 64.5710705,128.409238 64.5710705,103.82945 C64.5710705,79.2496616 61.4502412,56.2516257 55.7838024,39.0711411 C49.9291098,21.3198938 43.5786823,16.6295987 41.0393479,16.6295987 Z"/>
            </g>
            <path fill="#FBD48E" d="M146.601179,229.654224 L183.760686,230.571609 C186.510071,237.784651 188.037637,242.162153 188.343383,243.704112 C188.528601,244.638214 188.561347,246.022686 189.106611,247.6777 C189.404204,248.580967 190.194469,249.758472 191.477407,251.210216 L173.85,250.081264 C171.586004,245.429085 168.681317,241.794136 165.135939,239.176419 C161.590561,236.558701 155.412307,233.384636 146.601179,229.654224 Z" transform="matrix(-1 0 0 1 338.079 0)"/>
            <path fill="#FBD48E" stroke="#4C3818" d="M171.303573,295.881025 C149.939239,294.491611 134.284266,287.981871 124.338654,276.351805 C109.420238,258.906706 109.419223,239.710573 115.556081,230.691767 C121.69294,221.67296 138.887432,223.596943 155.408087,230.691767 C171.928741,237.786591 177.146444,241.94611 181.516284,254.896275 C185.886125,267.846439 180.454736,279.108148 187.91382,276.351805 C195.372905,273.595462 203.620915,261.602223 205.385946,254.896275 C207.150978,248.190326 194.81421,254.915754 195.813049,240.964972 C196.478942,231.66445 200.682763,222.161679 208.424512,212.45666 C213.228873,211.067165 217.872362,211.067165 222.354979,212.45666 C229.078904,214.540902 237.217653,223.898154 230.540089,244.951326 C226.088379,258.986774 215.273352,271.241674 198.095008,281.716026 L189.27602,300.954813 L171.303573,295.881025 Z" transform="matrix(-1 0 0 1 344.727 0)"/>
            <path fill="#FBD48E" stroke="#4C3818" d="M159.897839,272.434899 C164.304858,271.252938 169.419509,272.175924 175.241791,275.203856 C183.975213,279.745754 179.095162,286.031434 186.04204,286.031434 C190.673292,286.031434 196.08626,282.422241 202.280943,275.203856" transform="matrix(-1 0 0 1 362.179 0)"/>
            <path fill="#FBD48E" stroke="#4C3818" d="M165.715128,250.381139 C164.463018,240.067931 162.177821,232.329183 158.859537,227.164897 C155.541252,222.000611 150.901106,218.961362 144.939096,218.047151" transform="matrix(-1 0 0 1 310.654 0)"/>
            <path fill="#FBD48E" stroke="#4C3818" d="M129.149312,246.114964 C131.94343,246.511287 135.099944,245.932352 138.618855,244.378159 C142.137766,242.823966 144.521527,240.955936 145.770138,238.774067" transform="matrix(-1 0 0 1 274.92 0)"/>
            <g fill-rule="nonzero" transform="scale(-1 1) rotate(27 -126.972 -522.901)">
              <polygon fill="#FFEA84" points="115.064 211.653 115.064 165.451 131.164 165.451 131.164 187.866 195.566 161.337 195.566 132.295 211.666 132.295 211.666 171.859"/>
              <g fill="#FFDC40" transform="translate(48.04 .752)">
                <polygon points="147.554 129.838 147.554 158.907 100.219 178.57 100.219 195.74 163.535 169.439 163.535 129.838"/>
                <polygon points=".153 202.967 .153 .25 186.982 77.858 225.327 77.858 225.327 125.36 186.982 125.36"/>
              </g>
              <path fill="#FFEA84" d="M39.9799951,205.804733 C31.3355158,205.804733 19.0961659,200.044499 9.87733619,172.602462 C3.59295387,153.89409 0.131442982,129.17559 0.131442982,102.999897 C0.131442982,76.8242042 3.59295387,52.1057039 9.87733619,33.3973326 C19.0961659,5.95529496 31.3355158,0.195060906 39.9799951,0.195060906 C48.6244743,0.195060906 60.8638242,5.95529496 70.0826539,33.3973326 C76.3670362,52.1057039 79.8285471,76.8247314 79.8285471,102.999897 C79.8285471,129.175063 76.3670362,153.89409 70.0826539,172.602462 C60.8638242,200.044499 48.6244743,205.804733 39.9799951,205.804733 Z"/>
              <path fill="#FFAB15" d="M235.236752,78.8697965 L148.981142,42.9938797 C153.397771,60.0817527 155.791966,80.7922085 155.791966,102.512469 C155.791966,124.23273 153.397771,144.943186 148.981142,162.031059 L235.236752,126.155142 L273.356925,126.155142 L273.356925,78.8697965 L235.236752,78.8697965 Z"/>
              <path fill="#FF9400" d="M41.0661625,16.6246099 C38.5251934,16.6246099 32.1706776,21.3134979 26.3122159,39.0594198 C20.6421292,56.2347504 17.5192908,79.2258869 17.5192908,103.798301 C17.5192908,128.370716 20.6421292,151.361853 26.3122159,168.537183 C32.1706776,186.283105 38.5251934,190.971993 41.0661625,190.971993 C43.6071315,190.971993 49.9616473,186.283105 55.820109,168.537183 C61.4901957,151.362381 64.6130341,128.370716 64.6130341,103.798301 C64.6130341,79.2258869 61.4901957,56.2347504 55.820109,39.0594198 C49.9616473,21.3134979 43.6071315,16.6246099 41.0661625,16.6246099 Z"/>
            </g>
            <path fill="#FCD591" stroke="#4C3818" d="M165.715128,215.884008 C157.795452,205.086938 149.951122,204.438915 142.182139,213.939937 C130.528664,228.19147 128.522054,241.243764 133.046464,247.457313 C136.062738,251.599679 145.962333,245.574023 162.745249,229.380344" transform="rotate(180 148.263 227.996)"/>
          </g>
          <path fill="url(#monkey-f)" stroke="#58391D" d="M476.18664,415.199022 C450.72145,430.787362 424.106783,438.581532 396.342639,438.581532 C363.0143,438.581532 305.946277,430.248935 281.718068,397.583707 C275.671345,389.431325 272.153838,379.732895 272.153838,367.710438 C272.153838,345.008999 234.458726,289.66184 236.966564,280.208693 C238.143282,275.773127 238.143282,272.463222 236.966564,270.278978 L251.012375,287.197407 L259.109401,271.868316 C262.040229,281.801014 264.301815,287.489859 265.894159,288.934849 C267.486503,290.37984 271.108809,285.016311 276.761078,272.844261 C274.698026,281.113763 274.698026,287.184072 276.761078,291.055188 C278.824129,294.926304 285.138576,291.310806 295.704417,280.208693 C292.053361,286.187269 290.227833,290.619804 290.227833,293.506299 C290.227833,296.392793 295.850326,294.868977 307.095313,288.934849 C308.660744,296.22328 306.574663,304.561914 300.837071,313.950749 C290.067395,331.573947 311.831335,371.597063 322.436402,385.43153 C341.516311,410.321555 392.766391,417.104506 476.18664,405.780383 L476.18664,415.199022 Z" transform="matrix(-1 0 0 1 713.033 0)"/>
          <g transform="translate(59.004 130.165)">
            <path fill="url(#monkey-g)" stroke="#58391D" stroke-width=".902" d="M67.3601342,90.9778803 C78.0200143,77.0834361 95.8374988,61.5145404 120.812588,44.2711929 C145.787677,27.0278454 171.894004,12.2707811 199.13157,-9.42550993e-14 L170.18758,32.1333124 L216.324423,36.4756109 L194.149542,45.5149491 C206.114151,49.6752301 216.878072,55.4922137 226.441306,62.9659 C236.00454,70.4395863 244.631881,79.776913 252.32333,90.9778803 L242.342132,146.382012 L269.971972,204.105856 C213.406096,257.710724 177.217929,284.513158 161.407471,284.513158 C145.597013,284.513158 107.060795,257.710724 45.7988167,204.105856 L72.6152984,146.382012 L67.3601342,90.9778803 Z" transform="matrix(-1 0 0 1 315.77 0)"/>
            <path fill="#FCD591" stroke="#4C3818" stroke-width=".902" d="M30.3238094,197.581438 C50.0280878,199.69094 68.6131522,176.091497 71.8347126,144.870606 C75.056273,113.649716 61.69439,86.6300936 41.9901116,84.5205914 C22.2858332,82.4110892 3.70076882,106.010532 0.479208421,137.231423 C-2.74235198,168.452314 10.619531,195.471936 30.3238094,197.581438 Z" transform="matrix(-1 0 0 1 72.314 0)"/>
            <path fill="#FCD591" stroke="#4C3818" stroke-width=".902" d="M282.025722,197.581438 C261.664634,199.69094 242.460067,176.091497 239.131122,144.870606 C235.802176,113.649716 249.609455,86.6300936 269.970543,84.5205914 C290.33163,82.4110892 309.536197,106.010532 312.865143,137.231423 C316.194088,168.452314 302.386809,195.471936 282.025722,197.581438 Z" transform="matrix(-1 0 0 1 551.996 0)"/>
            <path stroke="#58391D" stroke-linecap="round" stroke-width=".902" d="M59.9757912,122.424145 C62.0753249,112.676894 52.2646159,106.70828 41.7965515,108.984583 C31.3284871,111.260886 25.6408865,121.299694 22.5031634,135.866822 C20.4113481,145.578241 22.3761717,157.352674 28.3976342,171.19012" transform="matrix(-1 0 0 1 81.956 0)"/>
            <path stroke="#58391D" stroke-linecap="round" stroke-width=".902" d="M294.076612,125.956682 C289.030301,116.416059 282.388566,112.279072 274.151408,113.54572 C261.79567,115.445693 257.232009,125.912527 253.945954,140.540803 C251.755252,150.292988 253.812959,162.116846 260.119077,176.012377"/>
            <path stroke="#58391D" stroke-linecap="round" stroke-width=".902" d="M50.6098962,171.19012 C57.9474116,169.711554 61.6355384,160.425315 59.791475,150.815801 C57.9474116,141.206287 46.6512229,136.295432 39.8411162,137.658483 C33.0310096,139.021534 24.4628821,144.004398 26.957436,154.228663" transform="matrix(-1 0 0 1 86.777 0)"/>
            <path stroke="#58391D" stroke-linecap="round" stroke-width=".902" d="M276.835738,173.601249 C284.25163,172.123374 289.331414,160.948388 285.578057,152.086057 C281.824701,143.223725 272.834779,138.722878 265.951929,140.085292 C259.069079,141.447706 251.052193,146.503866 253.573393,156.72335"/>
            <path fill="#FBD48E" stroke="#58391D" stroke-width=".902" d="M95.2491515,153.97986 C82.8153834,126.690556 84.6245012,103.910998 100.676505,85.6411867 C116.728509,67.3713754 135.814917,68.7435468 157.93573,89.7577007 C178.312049,71.4782667 196.451149,70.1060954 212.353032,85.6411867 C228.254915,101.176278 231.03911,123.955836 220.705618,153.97986" transform="matrix(-1 0 0 1 313.92 0)"/>
            <path fill="url(#monkey-h)" d="M134.985986,107.815408 C143.724471,106.113355 150.764588,105.262329 156.106337,105.262329 C161.448085,105.262329 168.870752,106.113355 178.374339,107.815408 L171.893401,129.306823 C166.426813,128.41996 161.193232,127.976529 156.192658,127.976529 C151.192084,127.976529 146.192928,128.41996 141.195191,129.306823 L134.985986,107.815408 Z" opacity=".4" transform="matrix(-1 0 0 1 313.36 0)"/>
            <polyline stroke="#58391D" stroke-width=".902" points="180.785 156.723 175.674 147.079 166.322 147.079" transform="matrix(-1 0 0 1 347.107 0)"/>
            <polyline stroke="#58391D" stroke-width=".902" points="147.038 156.723 141.075 147.079 130.165 147.079"/>
            <path fill="#FBD48E" stroke="#58391D" stroke-width=".902" d="M214.478224,151.901093 C252.619808,170.881232 271.099982,187.803567 269.918746,202.668099 C268.146893,224.964896 176.701185,283.952628 159.692857,284.509961 C142.68453,285.067294 45.7988167,212.57711 45.7988167,202.668099 C45.7988167,196.062091 64.6782085,179.139756 102.436992,151.901093" transform="matrix(-1 0 0 1 315.77 0)"/>
            <line x1="157.749" x2="155.611" y1="166.368" y2="197.713" stroke="#58391D" stroke-linecap="round" stroke-width=".902" transform="matrix(-1 0 0 1 313.36 0)"/>
            <path fill="#7B531F" stroke="#87642D" stroke-width=".902" d="M90.9849401,208.579563 C109.715073,201.081827 132.998819,197.332958 160.836177,197.332958 C188.673535,197.332958 210.734444,201.14587 227.018904,208.771693 C226.05022,229.887193 203.810722,240.444943 160.30041,240.444943 C116.790097,240.444943 93.6849408,229.82315 90.9849401,208.579563 Z" transform="matrix(-1 0 0 1 318.004 0)"/>
            <path fill="#4A220F" d="M153.117675,204.546227 C154.182937,206.838881 154.65578,209.115179 158.032413,209.115179 C161.409045,209.115179 162.147089,207.542201 163.008844,204.120985 C163.870599,200.69977 159.794642,200.004568 161.409045,198.935482 C163.023448,197.866397 168.606433,195.802697 175.284999,199.395631 C181.963565,202.988565 181.687055,205.922044 179.037923,209.737683 C176.388791,213.553322 169.39531,215.442724 158.605526,215.595529 C147.815742,215.748333 140.728321,214.625505 136.364939,210.342016 C132.001557,206.058527 136.677998,202.134969 141.114773,199.395631 C145.551548,196.656293 153.015612,198.62067 154.650172,198.935482 C156.284732,199.250295 152.052414,202.253573 153.117675,204.546227 Z" transform="matrix(-1 0 0 1 315.407 0)"/>
            <path fill="#FFF" d="M97.6452745,197.332958 L90.4257671,210.348693 C105.71249,217.870146 129.065605,221.630872 160.485114,221.630872 C207.614378,221.630872 223.663483,211.386387 226.459731,210.348693 C228.323896,209.656898 225.52701,205.51953 218.069072,197.936589 C200.655922,202.849145 180.742468,205.305423 158.328709,205.305423 C135.91495,205.305423 115.687139,202.647935 97.6452745,197.332958 Z" transform="rotate(180 158.722 209.482)"/>
            <path stroke="#58391D" stroke-width=".902" d="M181.366347,161.545606 C181.366347,161.545606 199.093568,146.585392 194.48193,141.163579 C189.870291,135.741766 180.372854,130.200937 153.701782,130.200937 C127.030709,130.200937 120.057228,137.099912 116.36228,141.924235 C113.898981,145.14045 118.330891,151.136324 129.65801,159.911856" transform="matrix(-1 0 0 1 310.95 0)"/>
            <path stroke="#58391D" stroke-width=".902" d="M130.165058,46.1646076 C128.839124,45.6937183 127.137816,45.6937183 125.061135,46.1646076 C122.984454,46.635497 121.47181,47.3214841 120.523202,48.2225691" transform="matrix(-1 0 0 1 250.688 0)"/>
            <path fill="#F9909B" d="M112.938908,230.628143 C129.549038,233.939193 144.991329,235.755522 159.26578,236.077129 C173.540232,236.398736 188.508265,235.306756 204.169879,232.801187 C198.28546,222.681215 190.245633,217.071026 180.050398,215.970621 C169.855163,214.870216 162.804504,216.19164 158.898423,219.934895 C154.342902,215.846745 147.316581,214.525264 137.819458,215.970454 C128.322335,217.415644 120.028818,222.30154 112.938908,230.628143 Z" transform="scale(-1 1) rotate(-1 0 18394.302)"/>
            <path fill="#FFF" d="M158.453417,228.6054 C128.901905,228.605258 106.321536,235.632149 106.321536,241.082355 C109.163541,241.082355 112.664354,240.370172 158.898858,238.709096 C205.133361,237.04802 207.723967,239.061889 209.816464,237.820326 C211.908961,236.578763 188.004929,228.605542 158.453417,228.6054 Z" transform="rotate(-179 158.133 234.844)"/>
            <path fill="#FFF" stroke="#000" d="M139.485286 109.637967C139.361071 109.442122 139.234578 109.249616 139.102386 109.063787 138.975892 108.885747 138.847119 108.71327 138.716067 108.546357 138.260234 108.569725 137.8044 108.610897 137.347427 108.66876 133.415864 109.170611 129.483162 110.972156 125.829657 113.967683 124.878105 114.747722 124.039371 115.529986 123.324852 116.252162 122.841669 116.74066 122.415465 117.202451 122.047379 117.619733 122.025727 117.998069 122.012052 118.37863 122.012052 118.762529 122.012052 118.978403 122.016611 119.193164 122.023448 119.406812 122.135127 122.821847 123.134542 126.017669 124.867849 128.462384 126.75272 131.124086 129.280316 132.589579 131.984547 132.589579 134.688779 132.589579 137.216375 131.124086 139.102386 128.462384 140.942813 125.864109 141.957042 122.419031 141.957042 118.762529 141.957042 115.36975 141.082982 112.159462 139.485286 109.637967L139.485286 109.637967zM195.108736 117.300412C194.755987 116.897519 194.346449 116.451651 193.884491 115.979998 193.200836 115.283799 192.400326 114.531733 191.489514 113.780741 187.987146 110.887433 184.217214 109.148011 180.447282 108.663465 180.009349 108.607597 179.572509 108.568919 179.135669 108.546357 179.010077 108.707515 178.88667 108.874044 178.765447 109.045945 178.638763 109.225366 178.51754 109.411234 178.398501 109.600325 176.867375 112.034872 176.029734 115.13446 176.029734 118.410247 176.029734 121.940663 177.000612 125.266945 178.765447 127.775625 180.572874 130.345543 182.995153 131.760503 185.586708 131.760503 188.178264 131.760503 190.599451 130.345543 192.406878 127.775625 194.069056 125.413061 195.026828 122.325291 195.132762 119.024793 195.139315 118.820661 195.143683 118.616528 195.143683 118.410247 195.143683 118.037437 195.129486 117.66785 195.108736 117.300412L195.108736 117.300412z"/>
            <path fill="#1A1919" d="M137.801836,120.567428 C137.801836,124.00238 135.568589,126.786043 132.814962,126.786043 C130.061334,126.786043 127.829341,124.00238 127.829341,120.567428 C127.829341,117.133557 130.061334,114.349894 132.814962,114.349894 C135.568589,114.349894 137.801836,117.133557 137.801836,120.567428"/>
            <path fill="#FFFFFE" d="M131.984547,115.592916 C131.984547,117.195854 131.054351,118.495277 129.906944,118.495277 C128.759538,118.495277 127.829341,117.195854 127.829341,115.592916 C127.829341,113.991164 128.759538,112.691741 129.906944,112.691741 C131.054351,112.691741 131.984547,113.991164 131.984547,115.592916"/>
            <path fill="#1A1919" d="M180.18494,120.152853 C180.18494,123.816802 182.044935,126.786043 184.340669,126.786043 C186.635359,126.786043 188.495353,123.816802 188.495353,120.152853 C188.495353,116.490058 186.635359,113.520817 184.340669,113.520817 C182.044935,113.520817 180.18494,116.490058 180.18494,120.152853"/>
            <path fill="#FFFFFE" d="M186.002229,115.178462 C186.002229,116.552409 186.746387,117.6662 187.664312,117.6662 C188.582237,117.6662 189.326394,116.552409 189.326394,115.178462 C189.326394,113.805532 188.582237,112.691741 187.664312,112.691741 C186.746387,112.691741 186.002229,113.805532 186.002229,115.178462"/>
            <path fill="#FBD48E" d="M273.587668,157.687791 L307.226379,158.510754 C309.715264,164.981394 311.098096,168.90834 311.374874,170.291594 C311.542543,171.129553 311.572186,172.371529 312.065787,173.8562 C312.335183,174.666498 313.050572,175.722809 314.211954,177.025132 L298.254712,176.012377 C296.205226,171.839024 293.575753,168.578202 290.366293,166.229913 C287.156833,163.881624 281.563958,161.03425 273.587668,157.687791 Z" transform="matrix(-1 0 0 1 587.8 0)"/>
            <path fill="#FBD48E" stroke="#4C3818" d="M257.468248,172.949173 C260.027902,173.326954 262.919542,172.775104 266.143169,171.293626 C269.366797,169.812147 271.550528,168.031514 272.694363,165.951725" transform="matrix(-1 0 0 1 530.163 0)"/>
          </g>
          <g transform="matrix(-1 0 0 1 472.862 294.322)">
            <polygon fill="#5D74D2" points="248.087 117.234 251.403 121.709 249.181 130.266 253.655 140.229 259.808 131.027 258.11 122.08 262.123 117.234"/>
            <path fill="#FFF" d="M276.660298,114.899494 C270.904478,114.213136 266.465765,114.571043 263.34416,115.973214 C260.222554,117.375385 258.44872,119.583592 258.022658,122.597835 L258.756768,132.918969 L254.547162,138.654245 L258.930454,135.360888 L279.969949,115.654164 L276.660298,114.899494 Z"/>
            <path fill="#FFF" d="M251.196464,113.869958 C246.896385,113.882134 243.7167,114.435074 241.657409,115.528776 C239.598118,116.622479 237.857627,118.682676 236.435934,121.709368 L238.645747,130.265503 L234.551938,139.333366 L239.739583,133.099905 L253.275081,114.899494 L251.196464,113.869958 Z" transform="matrix(-1 0 0 1 487.827 0)"/>
            <use fill="url(#monkey-i)" xlink:href="#monkey-j"/>
            <use fill="url(#monkey-k)" stroke="#4A5D3A" xlink:href="#monkey-j"/>
            <path fill="#FFF" stroke="#0E115B" d="M395.000783,173.145682 L456.912846,175.728858 L460.072568,190.535598 C451.802182,193.904539 441.106432,194.270966 427.985319,191.634879 C414.864206,188.998792 404.060565,184.858074 395.574397,179.212724 L395.000783,173.145682 Z"/>
            <path fill="#FFF" stroke="#0E115B" d="M1.17329623,1.4064239 C13.563194,7.36153156 24.5859851,10.1891872 34.2416694,9.88939089 C43.8973538,9.58959456 54.4917098,6.99605255 66.0247373,2.10876487 L63.8861375,23.3126379 C53.9557762,27.5234014 44.0354704,29.9561042 34.1252202,30.6107463 C24.21497,31.2653883 15.3300475,30.2437177 7.47045253,27.5457345 L1.17329623,1.4064239 Z" transform="rotate(2 33.599 16.104)"/>
          </g>
          <g transform="translate(112.022 218.876)">
            <g transform="matrix(-1 0 0 1 205.436 0)">
              <path fill="#100000" d="M57.975679,0.279266387 C65.6980953,0.747853884 76.3164366,4.30570772 89.8307029,10.9528279 C93.5775092,10.0916296 97.3820033,9.66103041 101.244185,9.66103041 C105.106367,9.66103041 108.971419,10.0916296 112.839341,10.9528279 C126.178969,6.06427144 137.262018,3.359052 146.088489,2.83716955 C164.884539,1.72581615 184.331325,2.39039729 204.428847,4.83091297 L204.428847,17.7525871 L199.391027,21.1318614 C194.657351,43.6716349 190.45942,57.1119949 186.797234,61.4529417 C181.303955,67.9643618 169.094822,72.1403888 146.088489,68.9400505 C134.673255,67.3521134 122.246622,52.2151393 108.80859,23.5291284 C106.905157,22.3351572 104.920169,21.7381717 102.853626,21.7381717 C100.787084,21.7381717 98.5686148,22.3351572 96.19822,23.5291284 C81.6391712,48.6876483 70.8838381,63.0306537 63.9322206,66.5581448 C53.5047945,71.8493814 26.166935,70.9427625 16.0983694,61.4529417 C9.38599229,55.1263945 6.20379932,41.6860344 6.55179045,21.1318614 L-8.41325919e-12,17.7525871 L-8.41325919e-12,4.83091297 C22.8209004,0.835962564 42.1461268,-0.681252963 57.975679,0.279266387 Z M155.271221,8.03946386 C146.194792,8.03946386 133.247393,9.33775176 116.429025,11.9343276 C113.154121,12.4399428 110.909164,15.5046561 111.414774,18.7795613 C111.546424,19.6322737 111.860434,20.4465623 112.335387,21.166888 L135.06543,55.6398034 C135.198711,55.8419377 135.344103,56.0358199 135.500811,56.2203857 C140.248078,61.8115715 147.463756,64.7795658 157.147847,65.1243687 C165.561364,65.4239328 173.618463,64.4208612 181.319144,62.115154 C183.683337,61.4072767 185.372948,59.3239701 185.577493,56.8645679 L188.949789,16.3168615 C189.217028,13.1035512 186.89682,10.253583 183.696085,9.86361659 C173.714662,8.64751477 164.239707,8.03946386 155.271221,8.03946386 Z M47.7306309,7.24464134 C38.7621449,7.24464134 29.2871903,7.85269225 19.305767,9.06879407 C16.1050317,9.4587605 13.7848239,12.3087286 14.0520632,15.522039 L14.0520632,15.522039 L17.4243591,56.0697454 C17.6289041,58.5291476 19.3185147,60.6124542 21.6827075,61.3203315 C29.383389,63.6260387 37.4404882,64.6291102 45.8540051,64.3295462 C55.4240586,63.9888036 62.7354949,61.231815 67.7883142,56.0585804 C68.0696703,55.7705192 68.3213138,55.4548666 68.5394451,55.1164005 L68.5394451,55.1164005 L90.5726545,20.9269135 C91.0014477,20.2615443 91.294344,19.5179043 91.4344685,18.7388375 C92.0210655,15.4774651 89.8527315,12.3580695 86.59136,11.7714678 C69.812472,8.75358349 56.8588956,7.24464134 47.7306309,7.24464134 Z"/>
              <ellipse cx="194.76" cy="9.806" fill="#FFF" rx="4.144" ry="4.202"/>
              <ellipse cx="9.669" cy="9.806" fill="#FFF" rx="4.144" ry="4.202"/>
            </g>
            <path fill="#E7DBC9" d="M116.448159,9.26254868 C126.486827,8.06197595 136.016002,7.46168959 145.035682,7.46168959 C154.200494,7.46168959 167.200435,8.94631795 184.035506,11.9155747 C187.298845,12.4911412 189.477716,15.6031891 188.90215,18.8665287 C188.760458,19.6698957 188.456431,20.4359311 188.008651,21.1178169 L165.961676,54.6912518 C165.739448,55.0296486 165.483548,55.3446901 165.197881,55.6315557 C160.117724,60.7330199 152.768045,63.4518076 143.148842,63.787919 C134.689398,64.0835063 126.588323,63.0937303 118.845617,60.8185909 C116.470354,60.1206425 114.767644,58.0354803 114.558585,55.5686398 L111.182082,15.7267643 C110.909055,12.5051195 113.237843,9.64648588 116.448159,9.26254868 Z" opacity=".4" transform="matrix(-1 0 0 1 303.668 0)"/>
            <path fill="#E7DBC9" d="M21.7043172,9.2600676 C31.6903674,8.06114893 41.1699079,7.46168959 50.1429387,7.46168959 C59.2125908,7.46168959 72.1438324,8.73842808 88.9366634,11.2919051 C92.2127141,11.7900543 94.464649,14.8496472 93.9665007,18.125698 C93.8340943,18.9964627 93.5116024,19.8273985 93.0219239,20.5595034 L70.3701838,54.4255031 C70.2347696,54.6279573 70.0871533,54.821978 69.9281543,55.0064881 C65.1764124,60.5206416 57.9552152,63.4477852 48.2645628,63.787919 C39.8481107,64.0833293 31.7879927,63.0949152 24.0842089,60.8226766 C21.7110125,60.1226996 20.01087,58.0377104 19.8028609,55.5721961 L16.4407764,15.7216915 C16.1691374,12.5018843 18.496111,9.64524274 21.7043172,9.2600676 Z" opacity=".4"/>
          </g>
        </g>
      </g>
    </g>
    <g transform="translate(202)">
      <path fill="#FCD591" stroke="#4C3818" stroke-width=".902" d="M154.925443,273.555907 C132.262235,275.887222 110.886309,249.80632 107.180977,215.302583 C103.475645,180.798846 118.844041,150.938137 141.507249,148.606822 C164.170457,146.275508 185.546383,172.35641 189.251715,206.860147 C192.957047,241.363884 177.588652,271.224593 154.925443,273.555907 Z" transform="matrix(-1 0 0 1 296.433 0)"/>
      <path stroke="#58391D" stroke-linecap="round" stroke-width=".902" d="M169.009615,194.019302 C163.376224,183.416408 155.9618,178.8188 146.766343,180.22648 C132.973159,182.337999 127.878568,193.97023 124.210219,210.227247 C121.764654,221.065258 124.061752,234.205607 131.101514,249.648294"/>
      <path stroke="#58391D" stroke-linecap="round" stroke-width=".902" d="M149.590896,247.160105 C157.815784,245.526061 163.449719,233.170193 159.286911,223.371364 C155.124102,213.572534 145.153475,208.596074 137.519778,210.102457 C129.886082,211.608839 120.994637,217.199293 123.790873,228.498688"/>
      <path fill="#FBD48E" stroke="#4C3818" d="M134.908654,228.964729 C152.251363,208.363436 164.834577,195.887273 172.658297,191.53624 C180.482017,187.185208 190.332558,187.185208 202.209919,191.53624 C209.774035,195.098425 214.905382,198.069594 217.60396,200.449747 C220.302539,202.8299 222.679745,206.481293 224.735577,211.403925 L220.447864,272.522068 L191.838398,279.506562 L134.908654,228.964729 Z" transform="matrix(-1 0 0 1 359.644 0)"/>
      <g fill-rule="nonzero" transform="scale(-1 1) rotate(27 -128.02 -509.06)">
        <polygon fill="#FFEA84" points="115.085 211.798 115.085 165.564 131.188 165.564 131.188 187.995 195.602 161.448 195.602 132.386 211.705 132.386 211.705 171.977"/>
        <g fill="#FFDC40" transform="translate(48.048 .752)">
          <polygon points="147.582 129.927 147.582 159.016 100.238 178.693 100.238 195.874 163.565 169.555 163.565 129.927"/>
          <polygon points=".153 203.107 .153 .25 187.017 77.911 225.369 77.911 225.369 125.446 187.017 125.446"/>
        </g>
        <path fill="#FFEA84" d="M39.9870289,205.945878 C31.3409435,205.945878 19.0993194,200.181693 9.87877683,172.720835 C3.59322684,153.999634 0.131072784,129.264181 0.131072784,103.070536 C0.131072784,76.8768916 3.59322684,52.141439 9.87877683,33.4202371 C19.0993194,5.95937921 31.3409435,0.195194682 39.9870289,0.195194682 C48.6331143,0.195194682 60.8747384,5.95937921 70.095281,33.4202371 C76.380831,52.141439 79.842985,76.8774192 79.842985,103.070536 C79.842985,129.263653 76.380831,153.999634 70.095281,172.720835 C60.8747384,200.181693 48.6331143,205.945878 39.9870289,205.945878 Z"/>
        <path fill="#FFAB15" d="M235.280065,78.9238868 L149.008428,43.0233657 C153.425878,60.1229578 155.820518,80.8476172 155.820518,102.582774 C155.820518,124.317931 153.425878,145.04259 149.008428,162.142182 L235.280065,126.241661 L273.407322,126.241661 L273.407322,78.9238868 L235.280065,78.9238868 Z"/>
        <path fill="#FF9400" d="M41.0733981,16.6360114 C38.5319569,16.6360114 32.1762604,21.3281151 26.3167102,39.0862075 C20.64557,56.2733172 17.5221513,79.2802215 17.5221513,103.869488 C17.5221513,128.458755 20.64557,151.465659 26.3167102,168.652769 C32.1762604,186.410861 38.5319569,191.102965 41.0733981,191.102965 C43.6148393,191.102965 49.9705358,186.410861 55.830086,168.652769 C61.5012262,151.466188 64.6246449,128.458755 64.6246449,103.869488 C64.6246449,79.2802215 61.5012262,56.2733172 55.830086,39.0862075 C49.9705358,21.3281151 43.6148393,16.6360114 41.0733981,16.6360114 Z"/>
      </g>
      <path fill="#FBD48E" d="M145.721154,229.742782 L182.911492,230.660521 C185.663158,237.876345 187.191992,242.255534 187.497992,243.798088 C187.683363,244.73255 187.716136,246.117557 188.261853,247.773208 C188.559692,248.676823 189.350613,249.854783 190.634615,251.307087 L172.992583,250.177699 C170.726709,245.523726 167.819612,241.887376 164.271292,239.268649 C160.722972,236.649922 154.539593,233.474633 145.721154,229.742782 Z" transform="matrix(-1 0 0 1 336.356 0)"/>
      <path fill="#FBD48E" stroke="#4C3818" d="M170.444044,295.995122 C149.061983,294.605172 133.394021,288.092921 123.440158,276.458371 C108.509364,259.006545 108.508348,239.803009 114.650298,230.780725 C120.792248,221.758441 138.001007,223.683165 154.535369,230.780725 C171.069731,237.878285 176.291762,242.039408 180.665228,254.994567 C185.038694,267.949725 179.602799,279.215777 187.068072,276.458371 C194.533346,273.700965 202.788199,261.703101 204.554695,254.994567 C206.321191,248.286032 193.974187,255.014053 194.973855,241.057891 C195.640301,231.753783 199.847609,222.247348 207.595781,212.538586 C212.404128,211.148555 217.05147,211.148555 221.537806,212.538586 C228.26731,214.623633 236.412813,223.984493 229.729708,245.045783 C225.274304,259.086643 214.450304,271.346269 197.257707,281.82466 L188.431402,301.070866 L170.444044,295.995122 Z" transform="matrix(-1 0 0 1 343.01 0)"/>
      <path fill="#FBD48E" stroke="#4C3818" d="M159.028846,272.539954 C163.439522,271.357538 168.558416,272.280879 174.385529,275.309979 C183.126197,279.853628 178.242097,286.141732 185.194739,286.141732 C189.829834,286.141732 195.247292,282.531148 201.447115,275.309979" transform="matrix(-1 0 0 1 360.476 0)"/>
      <path fill="#FBD48E" stroke="#4C3818" d="M164.850962,250.47769 C163.597813,240.160504 161.31072,232.418773 157.989683,227.252495 C154.668645,222.086218 150.024648,219.045797 144.057692,218.131234" transform="matrix(-1 0 0 1 308.909 0)"/>
      <path fill="#FBD48E" stroke="#4C3818" d="M128.254808,246.20987 C131.051243,246.606345 134.210377,246.027187 137.732207,244.472395 C141.254038,242.917603 143.639777,241.048852 144.889423,238.866142" transform="matrix(-1 0 0 1 273.144 0)"/>
      <g fill-rule="nonzero" transform="scale(-1 1) rotate(27 -126.529 -521.308)">
        <polygon fill="#FFEA84" points="115.159 211.735 115.159 165.514 131.273 165.514 131.273 187.939 195.728 161.4 195.728 132.346 211.842 132.346 211.842 171.925"/>
        <g fill="#FFDC40" transform="translate(48.08 .752)">
          <polygon points="147.677 129.888 147.677 158.969 100.302 178.639 100.302 195.815 163.671 169.504 163.671 129.888"/>
          <polygon points=".153 203.046 .153 .25 187.138 77.888 225.514 77.888 225.514 125.408 187.138 125.408"/>
        </g>
        <path fill="#FFEA84" d="M40.0131663,205.884095 C31.3615148,205.884095 19.1120099,200.121639 9.88553138,172.66902 C3.59593493,153.953434 0.13155204,129.225402 0.13155204,103.039615 C0.13155204,76.8538288 3.59593493,52.1257967 9.88553138,33.4102111 C19.1120099,5.95759141 31.3615148,0.195136124 40.0131663,0.195136124 C48.6648178,0.195136124 60.9143227,5.95759141 70.1408012,33.4102111 C76.4303977,52.1257967 79.8947806,76.8543562 79.8947806,103.039615 C79.8947806,129.224875 76.4303977,153.953434 70.1408012,172.66902 C60.9143227,200.121639 48.6648178,205.884095 40.0131663,205.884095 Z"/>
        <path fill="#FFAB15" d="M235.431927,78.9002099 L149.104751,43.0104588 C153.525045,60.1049211 155.921226,80.8233632 155.921226,102.551999 C155.921226,124.280636 153.525045,144.999078 149.104751,162.09354 L235.431927,126.203789 L273.583729,126.203789 L273.583729,78.9002099 L235.431927,78.9002099 Z"/>
        <path fill="#FF9400" d="M41.1002349,16.6310206 C38.5571576,16.6310206 32.1973695,21.3217167 26.3340471,39.0744818 C20.6592559,56.2564354 17.5338265,79.2564377 17.5338265,103.838328 C17.5338265,128.420218 20.6592559,151.42022 26.3340471,168.602174 C32.1973695,186.354939 38.5571576,191.045635 41.1002349,191.045635 C43.6433122,191.045635 50.0031003,186.354939 55.8664227,168.602174 C61.5412139,151.420748 64.6666433,128.420218 64.6666433,103.838328 C64.6666433,79.2564377 61.5412139,56.2564354 55.8664227,39.0744818 C50.0031003,21.3217167 43.6433122,16.6310206 41.1002349,16.6310206 Z"/>
      </g>
      <path fill="#FCD591" stroke="#4C3818" d="M164.850962,215.967256 C156.924715,205.166023 149.073877,204.517749 141.298448,214.022435 C129.635304,228.279464 127.627029,241.336791 132.155193,247.552736 C135.173969,251.696699 145.081778,245.66872 161.878619,229.468797" transform="rotate(180 147.385 228.084)"/>
    </g>
    <path fill="url(#monkey-l)" stroke="#58391D" d="M353.793924,278.664842 C354.933754,274.347593 354.933754,271.125979 353.793924,269 L367.399427,285.467134 L375.242627,270.546943 C378.08158,280.214688 380.27227,285.751784 381.814697,287.15823 C383.357123,288.564676 386.865878,283.344217 392.340959,271.496854 C390.34258,279.545769 390.34258,285.454154 392.340959,289.222009 C394.339339,292.989864 400.45584,289.470808 410.690463,278.664842 C407.153861,284.483941 405.385559,288.798239 405.385559,291.607737 C405.385559,294.417235 410.831799,292.934066 421.724278,287.15823 C423.760941,289.869345 424.846007,292.150958 424.979474,294.003067 C425.112942,295.855176 424.595509,298.385976 423.427175,301.595468 C411.087699,304.318988 402.219573,305.772024 396.822795,305.954575 C377.678831,306.602137 364.648661,300.166299 358.387604,296.842697 C351.364431,285.466567 352.8977,282.059401 353.793924,278.664842 Z" transform="matrix(-1 0 0 1 778 0)"/>
  </g>
</svg>
